<?xml version="1.0" encoding="utf-8"?>
<!-- Generator: Adobe Illustrator 19.0.1, SVG Export Plug-In . SVG Version: 6.00 Build 0)  -->
<svg version="1.1" id="Layer_1" xmlns="http://www.w3.org/2000/svg" xmlns:xlink="http://www.w3.org/1999/xlink" x="0px" y="0px"
	 viewBox="-813 586 100 99" style="enable-background:new -813 586 100 99;" xml:space="preserve">
<style type="text/css">
	.st0{fill:#FFFFFF;}
</style>
<polygon class="st0" points="-794.8,625 -790.8,620 -790.8,614.8 -769,614.8 -761.2,622.2 -735.8,623.5 -733.2,631 -731,635.5 
	-735.5,658.2 -790.2,658.2 "/>
<path d="M-732,629h-1v-6c0-1.7-1.3-3-3-3h-24.8l-7.1-7.1c-0.5-0.6-1.3-0.9-2.1-0.9h-20c-1.7,0-3,1.3-3,3v6h-1
	c-1.6,0-3.1,1.3-2.9,3.4l4,33c0.2,1.5,1.5,2.6,3,2.6h54c1.5,0,2.7-1.1,3-2.5l4-25C-728.9,630.3-730.4,629-732,629z M-737,631h-28.6
	l-7.7-7.7c-0.2-0.2-0.4-0.3-0.7-0.3h-15v-7h18.6l7.7,7.7c0.2,0.2,0.4,0.3,0.7,0.3h25V631z M-774.4,625l7.7,7.7
	c0.2,0.2,0.4,0.3,0.7,0.3h32.8l-3.7,23h-52.2l-3.8-31H-774.4z"/>
</svg>
