<?xml version="1.0" encoding="utf-8"?>
<!-- Generator: Adobe Illustrator 19.0.1, SVG Export Plug-In . SVG Version: 6.00 Build 0)  -->
<svg version="1.1" id="Layer_1" xmlns="http://www.w3.org/2000/svg" xmlns:xlink="http://www.w3.org/1999/xlink" x="0px" y="0px"
	 viewBox="-799 585 128 128" style="enable-background:new -799 585 128 128;" xml:space="preserve">
<g>
	<path id="Behance" d="M-683.4,620.4h-32.1v-8h32.1L-683.4,620.4C-683.4,620.4-683.4,620.4-683.4,620.4z M-736.8,653.1
		c2.1,3.2,3.1,7.1,3.1,11.7c0,4.7-1.2,9-3.5,12.7c-1.5,2.5-3.4,4.6-5.6,6.3c-2.5,1.9-5.5,3.3-9,4c-3.5,0.7-7.2,1.1-11.2,1.1H-799
		v-79.6h38.5c9.7,0.2,16.6,3,20.6,8.5c2.4,3.4,3.6,7.4,3.6,12.2c0,4.9-1.2,8.8-3.7,11.7c-1.4,1.7-3.4,3.2-6.1,4.5
		C-742,647.6-738.9,649.9-736.8,653.1z M-780.6,640.6h16.9c3.5,0,6.3-0.7,8.4-2c2.2-1.3,3.2-3.6,3.2-7c0-3.7-1.4-6.2-4.3-7.3
		c-2.5-0.8-5.6-1.2-9.4-1.2h-14.8V640.6z M-750.5,663.6c0-4.1-1.7-7-5.1-8.5c-1.9-0.9-4.6-1.3-8-1.3h-17.1V675h16.8
		c3.5,0,6.1-0.5,8.1-1.4C-752.3,671.9-750.5,668.6-750.5,663.6z M-671.5,650.7c0.4,2.6,0.6,6.4,0.5,11.3h-41.5c0.2,5.7,2.2,9.7,6,12
		c2.3,1.4,5,2.1,8.2,2.1c3.4,0,6.2-0.9,8.3-2.6c1.2-0.9,2.2-2.3,3.1-3.9h15.2c-0.4,3.4-2.2,6.8-5.5,10.3c-5.1,5.5-12.3,8.3-21.5,8.3
		c-7.6,0-14.3-2.3-20.1-7c-5.8-4.7-8.7-12.3-8.7-22.9c0-9.9,2.6-17.5,7.8-22.7c5.3-5.3,12-7.9,20.4-7.9c5,0,9.4,0.9,13.4,2.7
		c4,1.8,7.3,4.6,9.8,8.4C-673.7,642.3-672.2,646.2-671.5,650.7z M-686.5,652.2c-0.3-4-1.6-7-4-9c-2.4-2.1-5.3-3.1-8.8-3.1
		c-3.8,0-6.8,1.1-8.9,3.3c-2.1,2.2-3.4,5.1-4,8.8L-686.5,652.2L-686.5,652.2z"/>
</g>
</svg>
