<?xml version="1.0" encoding="utf-8"?>
<!-- Generator: Adobe Illustrator 19.0.1, SVG Export Plug-In . SVG Version: 6.00 Build 0)  -->
<svg version="1.1" id="Layer_1" xmlns="http://www.w3.org/2000/svg" xmlns:xlink="http://www.w3.org/1999/xlink" x="0px" y="0px"
	 viewBox="0 0 128 128" style="enable-background:new 0 0 128 128;" xml:space="preserve">
<path d="M128.6,69.1c-0.7,4.4-1.1,8.9-2.3,13.1c-6,21.3-19.4,36-40.1,44c-4.1,1.6-5.7,0.4-5.7-3.9c0-4.9-0.1-9.7,0-14.6
	c0.1-4.8-0.5-9.3-4-13.2c2.4-0.5,4.5-0.8,6.6-1.3c13.4-3,21-11.8,22-25.5c0.6-7.8-0.3-15-5.6-21.2c-0.5-0.5-0.4-1.7-0.2-2.6
	c1.1-4.5,0.8-8.8-0.5-13.2c-0.5-1.8-1.6-2.7-3.3-2.1c-4.2,1.6-8.5,3.2-12.6,5.1c-1.8,0.9-3.3,1.3-5.3,0.8c-9-2.1-18.1-2-27.2,0.1
	c-1.1,0.3-2.6-0.1-3.7-0.6c-3.9-1.7-7.7-3.7-11.7-5.2c-3.6-1.3-4.9-0.5-5.3,3.1c-0.5,4-0.1,8.1-0.1,12.1c0,0.9,0,2.1-0.6,2.7
	c-8.8,10.1-5.7,28.7,0.1,36.5c4.8,6.3,11.6,9,19,10.4c1.3,0.2,2.6,0.4,3.6,0.6c-1,2.6-2,5.1-3.1,7.6c-0.3,0.6-0.9,1.3-1.5,1.5
	c-6.7,2.2-12,1.5-16.6-4.8c-1.8-2.5-4.3-4.7-6.9-6.6c-1.7-1.3-4-1.6-6.7-0.1c1,1.1,1.9,2,2.7,2.9c2.1,2.4,5.1,4.5,6.1,7.3
	c3.1,9.1,10.5,11,19.9,10.2c0.8-0.1,1.7-0.2,2.8-0.4c0,4.2,0.1,8.2,0,12.1c-0.1,2.4-2.1,3.4-4.9,2.4c-8.9-3-16.8-7.7-23.4-14.3
	C9.2,101.3,2.4,88.3,1,72.8c0-0.5-0.3-0.9-0.4-1.3c0-3.4,0-6.9,0-10.3C1,58.4,1.3,55.7,1.9,53c6-27.3,27.2-46.7,54.9-50.3
	c28.6-3.8,56.8,13,67.2,40c2.7,6.9,3.8,14.1,4.5,21.3C128.6,65.7,128.6,67.4,128.6,69.1z"/>
</svg>
