<?xml version="1.0" encoding="utf-8"?>
<!-- Generator: Adobe Illustrator 19.0.1, SVG Export Plug-In . SVG Version: 6.00 Build 0)  -->
<svg version="1.1" id="Layer_1" xmlns="http://www.w3.org/2000/svg" xmlns:xlink="http://www.w3.org/1999/xlink" x="0px" y="0px"
	 viewBox="-799 585 128 128" style="enable-background:new -799 585 128 128;" xml:space="preserve">
<style type="text/css">
	.st0{fill:#FFFFFF;}
</style>
<g>
	<path class="st0" d="M-798.2,713c0-42.4,0-84.8,0-127.2c42.3,0,84.8,0,127.2,0c0,42.4,0,84.8,0,127.2
		C-713.3,713-755.8,713-798.2,713z M-674.8,599.7c-0.6,0.3-0.9,0.5-1.3,0.7c-4.2,2.4-8.8,4-13.4,5.2c-1.4,0.3-2.2,0-3.2-0.8
		c-7.5-6.7-16.3-8.8-25.9-5.6c-11.5,3.9-18.3,14.1-17.6,26.2c0.1,1.4,0.3,2.8,0.5,4.4c-21.7-1.5-39.5-10.6-53.6-27.1
		c-2.6,4-4,9.7-3.4,15.7c0.8,7.9,4.7,14,11.3,18.8c-4.3-0.1-8-1.4-11.6-3.1c0,5.2,1.3,9.8,3.9,14c3.9,6.1,9.4,10,16.7,11.8
		c-3.9,1-7.6,1.1-11.6,0.5c4.4,11.1,12.4,17.2,24.2,18.2c-11.4,8.5-24,11.9-37.9,10.9c1.4,0.9,2.7,1.7,4.1,2.5
		c15.2,8.2,31.4,10.7,48.4,8c17.4-2.8,32-11,43.2-24.7c12.1-14.7,18.1-31.6,17.7-50.6c0-0.8,0.2-1.4,0.9-1.8c3.1-2.8,6-5.6,9-8.5
		c1.1-1.1,1.9-2.5,3-3.9c-4.7,1.7-9.2,3.1-14,3.4C-680.4,610.3-676.8,605.8-674.8,599.7z"/>
	<path d="M-674.8,599.7c-2,6-5.7,10.6-10.7,14.1c4.9-0.5,9.4-1.8,14-3.4c-1,1.3-1.8,2.7-3,3.9c-3,3-5.9,5.7-9,8.5
		c-0.6,0.6-0.9,1-0.9,1.8c0.3,19.1-5.7,36-17.7,50.6c-11.3,13.7-25.8,21.8-43.2,24.7c-17,2.7-33.1,0.2-48.4-8
		c-1.4-0.8-2.7-1.6-4.1-2.5c13.9,1.1,26.5-2.3,37.9-10.9c-11.7-1-19.7-7.1-24.1-18.2c4,0.6,7.7,0.6,11.6-0.5
		c-7.3-1.8-12.9-5.6-16.7-11.8c-2.6-4.2-4-8.8-3.9-14c3.6,1.7,7.3,3,11.6,3.1c-6.6-4.8-10.5-11-11.3-18.8
		c-0.7-6.1,0.7-11.7,3.4-15.7c14,16.5,31.9,25.6,53.6,27.1c-0.1-1.6-0.3-3-0.5-4.4c-0.6-12.1,6.1-22.4,17.6-26.2
		c9.6-3.2,18.3-1.1,25.9,5.6c1,0.9,1.8,1.1,3.2,0.8c4.7-1.1,9.2-2.8,13.4-5.2C-675.7,600.1-675.3,600-674.8,599.7z"/>
</g>
</svg>
