<?xml version="1.0" encoding="utf-8"?>
<!-- Generator: Adobe Illustrator 19.0.1, SVG Export Plug-In . SVG Version: 6.00 Build 0)  -->
<svg version="1.1" id="Layer_1" xmlns="http://www.w3.org/2000/svg" xmlns:xlink="http://www.w3.org/1999/xlink" x="0px" y="0px"
	 viewBox="-799 585 128 128" style="enable-background:new -799 585 128 128;" xml:space="preserve">
<path d="M-734.9,585.1c17.6,0,35.2,0,52.8,0c5.5,0,9.7,3.3,10.9,8.5c0.2,0.9,0.2,1.8,0.2,2.7c0,35.1,0,70.2,0,105.2
	c0,7-4.4,11.3-11.4,11.3c-35,0-70.1,0-105.1,0c-7,0-11.4-4.4-11.4-11.3c0-35,0-70.1,0-105.1c0-6.3,4.2-10.4,8.5-11.2
	c1.1-0.2,2.2-0.2,3.3-0.2C-769.8,585.1-752.3,585.1-734.9,585.1z M-732.3,654.3c0,14.2,0,28.3,0,42.5c6.3,0,12.4,0,18.7,0
	c0-14.2,0-28.2,0-42.5c5.4,0,10.6,0,15.8,0c0-5.4,0-10.6,0-15.9c-5.3,0-10.5,0-16.1,0c0.2-3.2,0.2-6.3,0.6-9.3
	c0.1-1.4,1.2-2.5,2.7-2.9c1.6-0.4,3.1-0.7,4.7-0.9c2.8-0.2,5.5-0.2,8.2-0.3c0-5.3,0-10.5,0-15.9c-7.9,0.2-15.7-0.2-23.5,1.4
	c-6.4,1.4-9.4,4.8-10.2,11.3c-0.6,4.9-0.6,9.9-0.9,14.8c0,0.6,0,1.1,0,1.8c-3.7,0-7.1,0-10.5,0c0,5.4,0,10.6,0,15.9
	C-739.3,654.3-735.9,654.3-732.3,654.3z"/>
</svg>
