<?xml version="1.0" encoding="utf-8"?>
<!-- Generator: Adobe Illustrator 19.0.1, SVG Export Plug-In . SVG Version: 6.00 Build 0)  -->
<svg version="1.1" id="Layer_1" xmlns="http://www.w3.org/2000/svg" xmlns:xlink="http://www.w3.org/1999/xlink" x="0px" y="0px"
	 viewBox="0 0 128 128" style="enable-background:new 0 0 128 128;" xml:space="preserve">
<path d="M93,1.5c10.9,0.5,20.3,4.6,27,13.6c4.2,5.7,6.6,12.2,6.7,19.2c0.3,19.8,0.7,39.6-0.1,59.4c-0.7,19.1-14.6,32.4-33.8,32.9
	c-19.1,0.5-38.2,0.5-57.2,0c-19.6-0.5-33.4-14.3-34-33.9C1,73.7,1.1,54.6,1.6,35.5c0.5-19.8,14.3-33.3,34.1-34
	C45.2,1.1,83.4,1.1,93,1.5z M91.2,115.4c14.9-0.5,23.9-9.2,24.2-24.1c0.4-18.2,0.4-36.4,0-54.6c-0.3-14.8-9.4-23.7-24-24
	c-18.2-0.4-36.4-0.3-54.6,0c-8.5,0.1-16.2,3-20.4,11c-2,3.8-3.4,8.4-3.5,12.7c-0.4,18.4-0.5,36.7,0,55.1
	c0.3,13.7,7.7,21.8,21.4,23.3C44.1,116.1,82.2,115.7,91.2,115.4z"/>
<path d="M31.6,64c0-17.9,14.7-32.5,32.6-32.4c17.9,0.1,32.5,14.9,32.4,32.7C96.5,82,81.9,96.5,64.1,96.5
	C46.3,96.6,31.6,81.8,31.6,64z M85.1,64.2c0.1-11.8-9.2-21.1-21-21.1c-11.6,0-20.9,9.1-21.1,20.7C43,75.6,52.2,85,63.9,85.1
	C75.7,85.2,85.1,75.9,85.1,64.2z"/>
<path d="M98,22.8c4.3,0,7.5,3.5,7.4,7.8c-0.1,4.1-3.5,7.3-7.6,7.3c-4.2,0-7.5-3.5-7.4-7.8C90.4,26,93.8,22.7,98,22.8z"/>
</svg>
