<?xml version="1.0" encoding="utf-8"?>
<!-- Generator: Adobe Illustrator 19.0.1, SVG Export Plug-In . SVG Version: 6.00 Build 0)  -->
<svg version="1.1" id="Layer_1" xmlns="http://www.w3.org/2000/svg" xmlns:xlink="http://www.w3.org/1999/xlink" x="0px" y="0px"
	 viewBox="0 0 128 128" style="enable-background:new 0 0 128 128;" xml:space="preserve">
<path d="M64,128c-17,0-34,0-51,0c-6.1,0-11.3-4.1-12.6-9.8c-0.2-1-0.4-2.1-0.4-3.2C0,81,0,47,0,13.1C0,5.7,5.7,0,13.1,0
	C47,0,81,0,114.9,0c7.5,0,13.1,5.7,13.1,13.2c0,33.9,0,67.8,0,101.7c0,7.5-5.7,13.2-13.2,13.2C97.9,128,80.9,128,64,128z
	 M70.4,108.7c0-0.5,0-0.9,0-1.4c0-10.5,0-21,0-31.6c0-2.1,0.4-4,1.5-5.8c2.2-3.7,6.9-5.5,10.9-4.2c4.2,1.4,6.8,5.1,6.8,9.8
	c0,10.6,0,21.2,0,31.8c0,0.4,0,0.9,0,1.4c6.5,0,12.8,0,19.2,0c0-0.4,0-0.7,0-0.9c0-11.7,0-23.4,0-35.1c0-1.5-0.1-3.1-0.4-4.6
	c-1.4-6.7-5.1-11.8-11.1-15.2c-7.6-4.3-15.4-4-22.5,1.4c-1.6,1.2-2.9,2.7-4.4,4.1c0-2.4,0-4.8,0-7.2c-6.5,0-12.8,0-19.1,0
	c0,19.2,0,38.3,0,57.4C57.7,108.7,64,108.7,70.4,108.7z M38.3,108.7c0-19.2,0-38.3,0-57.4c-6.4,0-12.7,0-19,0c0,19.2,0,38.3,0,57.4
	C25.7,108.7,32,108.7,38.3,108.7z M40.3,28.8c0-6.3-5.2-11.6-11.5-11.6c-6.3,0-11.5,5.2-11.5,11.5c0,6.6,5.1,11.5,11.5,11.5
	C35.1,40.3,40.3,35.2,40.3,28.8z"/>
</svg>
