<?xml version="1.0" encoding="utf-8"?>
<!-- Generator: Adobe Illustrator 19.0.1, SVG Export Plug-In . SVG Version: 6.00 Build 0)  -->
<svg version="1.1" id="Layer_1" xmlns="http://www.w3.org/2000/svg" xmlns:xlink="http://www.w3.org/1999/xlink" x="0px" y="0px"
	 viewBox="-799 585 128 128" style="enable-background:new -799 585 128 128;" xml:space="preserve">
<path d="M-670.8,663.2c-0.7,2-1.1,4.2-2.2,6c-3.2,5.5-8.3,8.1-14.5,8.1c-14.9,0-29.8,0-44.7,0c-1.8,0-2.5-0.7-2.5-2.5
	c0-16.5,0-33,0-49.5c0-1.3,0.5-2,1.7-2.4c15.9-5.8,33.4,2.3,38.4,18.3c0.5,1.7,0.8,3.5,1.2,5.3c1.3-0.3,2.6-0.6,3.9-0.8
	c9-1.3,17,4.4,18.7,13.3c0,0.2,0.1,0.3,0.2,0.4C-670.8,660.8-670.8,662-670.8,663.2z"/>
<path d="M-798.8,661.8c0.6-2.6,1.2-5.2,1.7-7.8c0.2-0.9,0.5-1.3,1.4-1.3c0.9,0,1.2,0.4,1.4,1.2c0.5,2.5,1.1,5,1.7,7.5
	c0.1,0.6,0.1,1.2,0,1.8c-0.5,2.4-1.1,4.8-1.7,7.3c-0.2,0.8-0.5,1.2-1.4,1.2c-0.9,0-1.3-0.4-1.4-1.3c-0.5-2.5-1.1-5-1.7-7.5
	C-798.8,662.6-798.8,662.2-798.8,661.8z"/>
<path d="M-741.3,647.5c0,5.5,0.1,11,0,16.5c-0.1,3.7-0.5,7.5-0.8,11.2c-0.1,1.5-1,2.2-2.5,2.1c-1.4-0.1-2.1-0.8-2.2-2.3
	c-1.3-12.7-0.4-25.4-0.1-38.2c0-2,0.1-4,0.1-6c0-2.1,0.7-2.9,2.4-2.9c1.7,0,2.3,0.8,2.3,2.9c0.2,5.5,0.3,11.1,0.4,16.6
	C-741.5,647.5-741.4,647.5-741.3,647.5z"/>
<path d="M-759.9,651.2c0.3-6.8,0.5-11.7,0.7-16.7c0.1-1.5,0.6-2.1,2-2.1c1.4,0,2.1,0.6,2.1,2c0.3,7.1,0.5,14.2,1,21.3
	c0.5,6.5-0.4,12.9-0.9,19.3c-0.1,1.8-1.1,2.5-2.7,2.2c-1-0.2-1.4-0.8-1.5-1.8C-760.2,666.7-760.6,658.1-759.9,651.2z"/>
<path d="M-767.5,648.7c0.2,3.9,0.6,7.9,0.6,11.8c0,3.3-0.4,6.5-0.7,9.8c-0.2,1.8-0.4,3.6-0.6,5.3c-0.1,1.1-0.8,1.5-1.7,1.5
	c-1,0-1.8-0.3-1.9-1.5c-0.5-6.1-1.5-12.1-1.1-18.3c0.4-7,0.7-14,1-21c0-0.7,0.1-1.4,0.1-2.1c0-1.2,0.8-1.6,1.8-1.6
	c1.1,0,1.7,0.6,1.8,1.7C-768,639.3-767.7,644-767.5,648.7C-767.5,648.7-767.5,648.7-767.5,648.7z"/>
<path d="M-786,662.5c0.5-6.2,0.9-12.1,1.3-18.1c0.1-1,0.1-2,0.2-3c0.1-1,0.7-1.4,1.6-1.4c0.9,0,1.5,0.4,1.5,1.4
	c0.6,6.9,1.2,13.8,1.7,20.7c0.1,2-0.4,4-0.7,6.1c-0.3,2.5-0.7,5-1,7.6c-0.1,1-0.6,1.4-1.6,1.4c-0.9,0-1.5-0.4-1.6-1.3
	C-784.9,671.5-785.4,667-786,662.5C-786,662.4-786,662.4-786,662.5z"/>
</svg>
